<svg id="Layer_1" data-name="Layer 1" xmlns="http://www.w3.org/2000/svg" viewBox="0 0 170 31.56"><defs><style>.cls-1{fill:#51459e;}</style></defs><g id="SvgjsG1662"><path class="cls-1" d="M318.81,397a1.37,1.37,0,0,1-.15,1.37,1.34,1.34,0,0,1-1.2.7h-28.1a1.44,1.44,0,0,1-.72-.19,1.31,1.31,0,0,1-.5-.49A1.32,1.32,0,0,1,288,397l1.31-3.08a1.38,1.38,0,0,1,.55-.67,1.41,1.41,0,0,1,.8-.26h19.66l-6.92-16.53L297.76,390a1.42,1.42,0,0,1-.53.65,1.51,1.51,0,0,1-.82.23h-3.55a1.45,1.45,0,0,1-1.26-.67,1.69,1.69,0,0,1-.21-.68,1.59,1.59,0,0,1,.08-.72L300,368.71a1.44,1.44,0,0,1,.52-.67,1.41,1.41,0,0,1,.83-.26h4.05a1.4,1.4,0,0,1,.82.26,1.53,1.53,0,0,1,.53.67Zm27.46-10,6.37,9.75a1.42,1.42,0,0,1,0,1.51,1.27,1.27,0,0,1-.53.55,1.43,1.43,0,0,1-.74.21h-3.84a1.38,1.38,0,0,1-.71-.19,1.19,1.19,0,0,1-.51-.48l-6.41-10.17h-7.51v9.37A1.52,1.52,0,0,1,331,399h-3.21a1.4,1.4,0,0,1-1-.44,1.42,1.42,0,0,1-.44-1V383.65a1.5,1.5,0,0,1,1.47-1.48h13c2.47,0,4.12-.7,4.93-2.11a3.6,3.6,0,0,0,.43-1.94,3.93,3.93,0,0,0-1.31-3.12,5.57,5.57,0,0,0-3.88-1.22H327.74a1.52,1.52,0,0,1-1.47-1.48v-3a1.52,1.52,0,0,1,1.47-1.48h13.55a11,11,0,0,1,7.89,2.79,10.83,10.83,0,0,1,1.73,12.8,8.54,8.54,0,0,1-3.93,3.32Zm41.5-18.52a1.36,1.36,0,0,1,.17,1.39l-11.56,28.56a1.48,1.48,0,0,1-1.39.93h-3.72a1.48,1.48,0,0,1-1.39-.93l-11.56-28.56a1.32,1.32,0,0,1,.13-1.39,1.43,1.43,0,0,1,1.22-.68h14.09a1.42,1.42,0,0,1,1,.45,1.46,1.46,0,0,1,.44,1.07v3.08a1.49,1.49,0,0,1-.44,1.08,1.45,1.45,0,0,1-1,.44h-7.08l6.45,16.24,8.48-21.43a1.44,1.44,0,0,1,.55-.67,1.46,1.46,0,0,1,.84-.26h3.55a1.48,1.48,0,0,1,.71.19,1.27,1.27,0,0,1,.51.49ZM423.07,397a1.39,1.39,0,0,1-.14,1.37,1.37,1.37,0,0,1-1.21.7H393.63a1.39,1.39,0,0,1-.72-.19,1.27,1.27,0,0,1-.51-.49,1.3,1.3,0,0,1-.12-1.39l1.3-3.08a1.5,1.5,0,0,1,.55-.67,1.41,1.41,0,0,1,.8-.26h19.66l-6.92-16.53L402,390a1.36,1.36,0,0,1-.53.65,1.51,1.51,0,0,1-.82.23h-3.54a1.45,1.45,0,0,1-1.27-.67,1.87,1.87,0,0,1-.21-.68,1.59,1.59,0,0,1,.08-.72l8.57-20.08a1.46,1.46,0,0,1,.53-.67,1.38,1.38,0,0,1,.82-.26h4.05a1.38,1.38,0,0,1,.82.26,1.46,1.46,0,0,1,.53.67Zm33.32-29.24a1.52,1.52,0,0,1,1.48,1.48v28.27a1.42,1.42,0,0,1-.44,1,1.41,1.41,0,0,1-1,.44h-3.71a1.45,1.45,0,0,1-1.22-.59l-20.63-28.26a1.53,1.53,0,0,1-.3-.76,1.39,1.39,0,0,1,.15-.8,1.37,1.37,0,0,1,.55-.59,1.53,1.53,0,0,1,.78-.22h3.71a1.67,1.67,0,0,1,.68.15,1,1,0,0,1,.5.45l14.81,20.12V369.26a1.44,1.44,0,0,1,.42-1,1.38,1.38,0,0,1,1.06-.45Zm-21.18,20.47a1.47,1.47,0,0,1,1,.42,1.4,1.4,0,0,1,.44,1.05v7.81a1.42,1.42,0,0,1-.44,1,1.41,1.41,0,0,1-1,.44H432a1.41,1.41,0,0,1-1-.44,1.42,1.42,0,0,1-.44-1v-7.81a1.4,1.4,0,0,1,.44-1.05,1.47,1.47,0,0,1,1-.42Z" transform="translate(-287.87 -367.78)"/></g></svg>